Coordinates
version=1
nRows=14
nColumns=24
inDegrees=yes

Units are S.I. units (second, meters, Newtons, ...)
If the header above contains a line with 'inDegrees', this indicates whether rotational values are in degrees (yes) or radians (no).

endheader
time	pelvis_tilt	pelvis_list	pelvis_rotation	pelvis_tx	pelvis_ty	pelvis_tz	lumbar_extension	lumbar_bending	lumbar_rotation	arm_flex_r	arm_add_r	arm_rot_r	elbow_flex_r	pro_sup_r	wrist_flex_r	wrist_dev_r	arm_flex_l	arm_add_l	arm_rot_l	elbow_flex_l	pro_sup_l	wrist_flex_l	wrist_dev_l
      9.23200000	    -14.33053203	     -1.87548326	      4.89556748	      1.07431755	      0.87752146	      0.14286106	     -7.19138881	     -3.57643762	      3.57492304	      9.12778862	    -30.85989724	     37.19372049	     89.80226846	     68.57071912	    -26.47200253	    -22.65387175	     13.67405081	    -11.21590583	     31.55303520	     18.17021668	     57.15995127	    -20.74398269	    -14.74004091
      9.23600000	    -14.32932225	     -1.89123682	      4.86278710	      1.07428872	      0.87758404	      0.14327734	     -7.19267425	     -3.58965350	      3.53802961	      9.21492287	    -30.88294749	     37.19363258	     90.61908526	     68.64955062	    -26.46135053	    -22.61277468	     13.61148822	    -11.32272105	     31.58785009	     18.31731166	     57.21732303	    -20.72500552	    -14.74673910
      9.24000000	    -14.32328536	     -1.90179428	      4.84637400	      1.07432719	      0.87763468	      0.14350149	     -7.18772091	     -3.59946987	      3.51870916	      9.26220132	    -30.91894713	     37.15038903	     91.40874848	     68.60895783	    -26.34997636	    -22.55649431	     13.58599414	    -11.35321241	     31.56477730	     18.37464966	     57.23760555	    -20.73343890	    -14.73042755
      9.24400000	    -14.32583720	     -1.91214585	      4.83601015	      1.07427021	      0.87776800	      0.14375540	     -7.19131583	     -3.60919834	      3.50587106	      9.26669031	    -30.92746156	     37.09146407	     92.25639723	     68.52625692	    -26.23871877	    -22.49448503	     13.58816947	    -11.38699297	     31.51538236	     18.42615485	     57.25757024	    -20.71472389	    -14.70486392
      9.24800000	    -14.33859109	     -1.91052468	      4.82944281	      1.07408032	      0.87799465	      0.14376775	     -7.20415824	     -3.60577548	      3.50051903	      9.24212687	    -30.94671817	     36.94390229	     93.12874759	     68.39596263	    -26.15710935	    -22.43090276	     13.57350763	    -11.41925438	     31.44177157	     18.49916217	     57.30672098	    -20.60676813	    -14.68100046
      9.25200000	    -14.31895679	     -1.65001681	      4.90275118	      1.07481206	      0.87591249	      0.14153077	     -7.16204538	     -3.34971791	      3.62309722	      8.91065173	    -30.60553926	     36.04135283	     91.38929262	     75.66233733	    -25.33395134	    -24.99999983	     13.38364602	    -11.11317966	     31.22084831	     18.75824013	     57.38940301	    -20.00995586	    -14.33680447
      9.25600000	    -14.29995644	     -1.67126420	      4.89853265	      1.07506971	      0.87587511	      0.14185335	     -7.14380253	     -3.37314910	      3.61299540	      8.86308552	    -30.64220982	     36.01621300	     92.31184724	     75.74522772	    -25.43670120	    -24.99999983	     13.36012532	    -11.11693501	     31.23727973	     18.76294716	     57.36817000	    -20.07648032	    -14.32520539
      9.26000000	    -14.25914524	     -1.72041241	      4.88064030	      1.07558327	      0.87594095	      0.14278012	     -7.10496440	     -3.42679662	      3.58047187	      8.92925276	    -30.48710915	     36.05654238	     92.90734321	     75.76516801	    -25.43190806	    -24.99999983	     13.31538263	    -11.21404904	     31.25248234	     18.67233192	     57.37013899	    -20.11669464	    -14.32646776
      9.26400000	    -14.25654477	     -1.70747123	      4.86997769	      1.07560056	      0.87590636	      0.14252353	     -7.10139961	     -3.41202615	      3.57285408	      8.95405174	    -30.61993631	     35.99520907	     93.83263247	     75.70980741	    -25.42003124	    -24.99999983	     13.26560766	    -11.18894193	     31.32185519	     18.76438792	     57.40966423	    -20.20792633	    -14.36298658
      9.26800000	    -14.23907086	     -1.71394652	      4.86341209	      1.07578356	      0.87589708	      0.14263035	     -7.08364222	     -3.41958967	      3.56360961	      8.95248495	    -30.72490591	     36.05982693	     94.78526022	     75.69212662	    -25.37472855	    -24.99999983	     13.24082920	    -11.18858747	     31.35165225	     18.75170673	     57.42402454	    -20.31047334	    -14.37945866
      9.27200000	    -14.11328639	     -1.89677118	      4.80585794	      1.07678904	      0.87721289	      0.14336329	     -6.96573360	     -3.60624842	      3.47339587	      8.83185670	    -31.71336388	     36.48005986	     98.85153475	     69.43141971	    -24.90208361	    -19.56496746	     13.27099326	    -11.11112050	     31.20939022	     18.07131301	     57.38321927	    -20.96601859	    -14.54809486
      9.27600000	    -14.13075567	     -1.93997039	      4.74949636	      1.07645465	      0.87750363	      0.14430097	     -6.98980448	     -3.64429673	      3.40841237	      9.06887700	    -31.58325512	     36.51998691	     99.47295519	     69.39225093	    -24.85874321	    -19.57327982	     13.20369617	    -11.33309722	     31.25081426	     18.36306759	     57.45429242	    -20.94159107	    -14.61778753
      9.28000000	    -14.22293400	     -1.96650912	      4.70894297	      1.07497282	      0.87792673	      0.14477991	     -7.09203626	     -3.65948650	      3.36957534	      9.43639646	    -31.59330697	     36.51063945	    100.25469198	     67.83299354	    -24.16291309	    -19.56695209	     13.37715353	    -11.32675805	     30.96112519	     18.38800283	     57.42346987	    -21.10111107	    -14.67489697
      9.28400000	    -14.17904307	     -2.01272280	      4.67678576	      1.07543148	      0.87807264	      0.14564751	     -7.05026734	     -3.70837975	      3.32327901	      9.56742066	    -31.45228945	     36.61863594	    100.83070412	     67.84160567	    -24.10651180	    -19.66132979	     13.31606812	    -11.44885954	     30.97680084	     18.34937425	     57.43437745	    -21.08978687	    -14.67335226
